<svg width="23" height="23" viewBox="0 0 23 23" fill="none" xmlns="http://www.w3.org/2000/svg">
<path d="M17.1145 6.88035C15.7226 4.89124 13.5294 3.75033 11.0971 3.75033C9.09193 3.75033 7.21715 4.54695 5.81813 5.99331L5.4961 6.32633L2.65259 3.88742L3.00428 3.51231C4.0325 2.41593 5.24704 1.55264 6.61408 0.94642C8.03029 0.318437 9.53863 0 11.0971 0C12.929 0 14.7394 0.449679 16.3325 1.30048C17.9223 2.14958 19.2996 3.39985 20.3154 4.91631L20.4463 5.11168C20.5327 5.24055 20.4928 5.41554 20.3592 5.49436L17.5904 7.12637C17.469 7.19796 17.313 7.16405 17.2323 7.0486L17.1145 6.88035Z" fill="#CD2900"/>
<path d="M1.41487 16.5144C0.489217 14.8662 -0.00012207 12.993 -0.00012207 11.0972C-0.00012207 8.58664 0.821132 6.21661 2.37493 4.24346L2.69221 3.84045L5.53616 6.2798L5.25429 6.64906C4.27031 7.93822 3.75015 9.47639 3.75015 11.0973C3.75015 12.3134 4.05494 13.519 4.63167 14.5839L4.85289 14.9923L1.66603 16.9617L1.41487 16.5144Z" fill="#FFCE00"/>
<path d="M11.0971 22.1944C7.42798 22.1944 3.99852 20.3776 1.92318 17.3346L1.6333 16.9095L4.82071 14.9396L5.08745 15.3182C6.46659 17.2755 8.71322 18.4441 11.0971 18.4441C13.0772 18.4441 15.005 17.6245 16.3862 16.1953L16.7082 15.862L19.549 18.2985L19.198 18.6736C18.1696 19.7725 16.9542 20.6379 15.5856 21.2456C14.1678 21.8752 12.6577 22.1944 11.0971 22.1944Z" fill="#40A459"/>
<path d="M16.6684 15.9088L16.9494 15.5396C17.4014 14.9458 17.7586 14.2892 18.0113 13.5873L12.5657 13.5872C12.4167 13.5872 12.2959 13.4664 12.2959 13.3174V10.1068C12.2959 9.95775 12.4167 9.83694 12.5657 9.83694H21.9306C22.0594 9.83694 22.1647 9.93963 22.168 10.0684L22.1942 11.1034C22.193 13.6074 21.3743 15.9722 19.8267 17.942L19.5094 18.3457L16.6684 15.9088Z" fill="#1D81CE"/>
</svg>
