<svg width="63" height="83" viewBox="0 0 63 83" fill="none" xmlns="http://www.w3.org/2000/svg">
<path d="M40.2709 82H5.15898C2.53698 82 0.412613 79.844 0.412613 77.186V4.81397C0.412613 2.15603 2.53837 0 5.15898 0H40.2709C42.8929 0 45.0173 2.15603 45.0173 4.81397V77.1846C45.0187 79.844 42.8929 82 40.2709 82Z" fill="#545E73"/>
<rect x="0.412613" y="8.48279" width="44.6061" height="56.5517" fill="#8697CB"/>
<path d="M22.7156 77.7586C25.0252 77.7586 26.8975 75.8597 26.8975 73.5173C26.8975 71.1748 25.0252 69.2759 22.7156 69.2759C20.4061 69.2759 18.5338 71.1748 18.5338 73.5173C18.5338 75.8597 20.4061 77.7586 22.7156 77.7586Z" fill="#323A45"/>
<path d="M22.7156 5.65516H17.1399C16.369 5.65516 15.7459 5.0232 15.7459 4.24137C15.7459 3.45954 16.369 2.82758 17.1399 2.82758H22.7156C23.4865 2.82758 24.1096 3.45954 24.1096 4.24137C24.1096 5.0232 23.4865 5.65516 22.7156 5.65516Z" fill="#323A45"/>
<path d="M28.2914 5.65516H26.8975C26.1266 5.65516 25.5035 5.0232 25.5035 4.24137C25.5035 3.45954 26.1266 2.82758 26.8975 2.82758H28.2914C29.0623 2.82758 29.6853 3.45954 29.6853 4.24137C29.6853 5.0232 29.0623 5.65516 28.2914 5.65516Z" fill="#323A45"/>
<path d="M45.7604 82.9734C55.0388 82.9734 62.5604 75.4518 62.5604 66.1734C62.5604 56.895 55.0388 49.3734 45.7604 49.3734C36.482 49.3734 28.9604 56.895 28.9604 66.1734C28.9604 75.4518 36.482 82.9734 45.7604 82.9734Z" fill="#26B999"/>
<path d="M54.9598 58.0254C54.3228 57.583 53.452 57.7398 53.011 58.3754L45.1766 69.6314L39.648 65.0926C39.0516 64.6012 38.1682 64.6894 37.6782 65.2872C37.1868 65.885 37.2736 66.767 37.8728 67.257L44.5732 72.7576C44.8252 72.9634 45.1388 73.0754 45.4608 73.0754C45.5238 73.0754 45.5882 73.0712 45.6526 73.0628C46.039 73.0082 46.3862 72.7968 46.6102 72.4762L55.3098 59.9756C55.7508 59.34 55.594 58.4664 54.9598 58.0254Z" fill="white"/>
</svg>
