<svg width="62" height="71" viewBox="0 0 62 71" fill="none" xmlns="http://www.w3.org/2000/svg">
<path d="M57.7778 47.4133C55.8525 52.5853 52.9407 57.0824 49.1222 60.7784C44.7759 64.9851 39.0845 68.3279 32.2062 70.7124C31.9805 70.7904 31.7449 70.8543 31.5083 70.9014C31.1957 70.9626 30.8776 70.9957 30.5623 71H30.5005C30.1644 71 29.8267 70.9664 29.4917 70.9014C29.2551 70.8543 29.0228 70.7904 28.7982 70.714C21.9116 68.3333 16.2132 64.9921 11.8625 60.7854C8.04238 57.0895 5.13114 52.5951 3.20852 47.4231C-0.287483 38.0194 -0.0885539 27.6601 0.0715726 19.3355L0.0743051 19.2077C0.106549 18.5203 0.127316 17.7982 0.138793 17.0008C0.197269 13.086 3.3375 9.8473 7.28765 9.629C15.5235 9.17344 21.8947 6.51104 27.3385 1.2518L27.386 1.20847C28.2899 0.386727 29.4288 -0.0162886 30.5623 0.000503782C31.6553 0.0145877 32.744 0.417061 33.6156 1.20847L33.6621 1.2518C39.1069 6.51104 45.4781 9.17344 53.714 9.629C57.6641 9.8473 60.8044 13.086 60.8628 17.0008C60.8743 17.8036 60.8951 18.5246 60.9273 19.2077L60.929 19.2618C61.0886 27.6022 61.2864 37.982 57.7778 47.4133Z" fill="#536FD3"/>
<path d="M58.7183 47.4131C56.7574 52.5852 53.7918 57.0823 49.9028 60.7783C45.4761 64.9851 39.6797 68.3278 32.6743 70.7124C32.4444 70.7904 32.2045 70.8543 31.9635 70.9014C31.6451 70.9626 31.3212 70.9957 31 71V0C32.1132 0.014084 33.222 0.41656 34.1097 1.20797L34.1571 1.25131C39.7025 6.51059 46.1914 9.173 54.5794 9.62856C58.6025 9.84686 61.8008 13.0856 61.8603 17.0004C61.872 17.8032 61.8932 18.5242 61.926 19.2073L61.9277 19.2615C62.0902 27.6019 62.2917 37.9818 58.7183 47.4131Z" fill="#233268"/>
<path d="M49 35.9997C49 45.9033 40.9589 53.9647 31.0636 54H31.0003C21.0758 54 13 45.9248 13 35.9997C13 26.0752 21.0758 18 31.0003 18H31.0636C40.9589 18.0353 49 26.0967 49 35.9997Z" fill="white"/>
<path d="M48 35.9997C48 45.9033 40.3787 53.9647 31 54V18C40.3787 18.0353 48 26.0967 48 35.9997Z" fill="#F5F3F9"/>
<path d="M38.4093 32.5926L30.6948 40.6443L29.0278 42.3838C28.634 42.7948 28.1175 43 27.6016 43C27.0851 43 26.5691 42.7948 26.1748 42.3838L22.5907 38.642C21.8031 37.8201 21.8031 36.4887 22.5907 35.6663C23.3773 34.8444 24.6546 34.8444 25.4422 35.6663L27.6016 37.9197L35.5578 29.6168C36.3454 28.7944 37.6227 28.7944 38.4093 29.6168C39.1969 30.4388 39.1969 31.7718 38.4093 32.5926Z" fill="#FE9870"/>
<path d="M39.3599 32.3938L31 40V34.3763L36.2698 29.5827C37.1233 28.8058 38.5075 28.8058 39.3599 29.5827C40.2134 30.3592 40.2134 31.6184 39.3599 32.3938Z" fill="#FE9870"/>
</svg>
